<svg width="27.000000" height="27.000000" viewBox="0 0 27 27" fill="none" xmlns="http://www.w3.org/2000/svg" xmlns:xlink="http://www.w3.org/1999/xlink">
	<desc>
			Created with Pixso.
	</desc>
	<defs>
		<clipPath id="clip5858_63">
			<rect id="arrow-circle-left 1" rx="0.000000" width="26.000000" height="26.000000" transform="matrix(-1 0 0 1 27.5 0.5)" fill="white" fill-opacity="0"/>
		</clipPath>
	</defs>
	<rect id="arrow-circle-left 1" rx="0.000000" width="26.000000" height="26.000000" transform="matrix(-1 0 0 1 27.5 0.5)" fill="#FFFFFF" fill-opacity="0"/>
	<g clip-path="url(#clip5858_63)">
		<path id="Vector" d="M0.42 13.5C0.42 6.27 6.27 0.42 13.5 0.42C20.72 0.42 26.57 6.27 26.57 13.5C26.57 20.72 20.72 26.57 13.5 26.57C6.27 26.57 0.42 20.72 0.42 13.5ZM13.5 24.89C19.75 24.89 24.89 19.82 24.89 13.5C24.89 7.24 19.82 2.1 13.5 2.1C7.24 2.1 2.1 7.17 2.1 13.5C2.1 19.75 7.17 24.89 13.5 24.89ZM14.15 20.01L20.22 13.94C20.47 13.7 20.47 13.29 20.22 13.05L14.15 6.98C13.91 6.73 13.5 6.73 13.26 6.98L12.89 7.35C12.64 7.59 12.64 8.01 12.9 8.25L17.42 12.6L7.38 12.6C7.03 12.6 6.75 12.88 6.75 13.23L6.75 13.76C6.75 14.11 7.03 14.39 7.38 14.39L17.42 14.39L12.9 18.74C12.64 18.99 12.64 19.4 12.89 19.64L13.25 20.01C13.5 20.26 13.91 20.26 14.15 20.01Z" fill="#FFFFFF" fill-opacity="1.000000" fill-rule="nonzero"/>
	</g>
</svg>
