<svg width="27.000000" height="27.000000" viewBox="0 0 27 27" fill="none" xmlns="http://www.w3.org/2000/svg" xmlns:xlink="http://www.w3.org/1999/xlink">
	<desc>
			Created with Pixso.
	</desc>
	<defs>
		<clipPath id="clip5858_78">
			<rect id="arrow-circle-left 1" rx="0.000000" width="26.000000" height="26.000000" transform="matrix(-4.37114e-08 1 1 4.37114e-08 0.5 0.5)" fill="white" fill-opacity="0"/>
		</clipPath>
	</defs>
	<rect id="arrow-circle-left 1" rx="0.000000" width="26.000000" height="26.000000" transform="matrix(-4.37114e-08 1 1 4.37114e-08 0.5 0.5)" fill="#FFFFFF" fill-opacity="0"/>
	<g clip-path="url(#clip5858_78)">
		<path id="Vector" d="M13.5 26.57C6.27 26.57 0.42 20.72 0.42 13.5C0.42 6.27 6.27 0.42 13.5 0.42C20.72 0.42 26.57 6.27 26.57 13.5C26.57 20.72 20.72 26.57 13.5 26.57ZM24.89 13.5C24.89 7.24 19.82 2.1 13.5 2.1C7.24 2.1 2.1 7.17 2.1 13.5C2.1 19.75 7.17 24.89 13.5 24.89C19.75 24.89 24.89 19.82 24.89 13.5ZM20.01 12.84L13.94 6.77C13.7 6.52 13.29 6.52 13.05 6.77L6.98 12.84C6.74 13.08 6.74 13.48 6.98 13.73L7.35 14.1C7.6 14.34 8 14.34 8.25 14.09L12.6 9.58L12.6 19.61C12.6 19.96 12.89 20.25 13.23 20.25L13.76 20.25C14.1 20.25 14.39 19.96 14.39 19.61L14.39 9.58L18.75 14.09C18.99 14.34 19.39 14.35 19.64 14.1L20.01 13.74C20.25 13.48 20.25 13.08 20.01 12.84Z" fill="#E58D35" fill-opacity="1.000000" fill-rule="nonzero"/>
	</g>
</svg>
